<?xml version="1.0" standalone="no"?>
<!DOCTYPE svg PUBLIC "-//W3C//DTD SVG 20010904//EN"
 "http://www.w3.org/TR/2001/REC-SVG-20010904/DTD/svg10.dtd">
<svg version="1.0" xmlns="http://www.w3.org/2000/svg"
 width="736.000000pt" height="724.000000pt" viewBox="0 0 736.000000 724.000000"
 preserveAspectRatio="xMidYMid meet">

<g transform="translate(0.000000,724.000000) scale(0.100000,-0.100000)"
fill="#000000" stroke="none">
<path d="M5454 4192 c-25 -16 -54 -79 -54 -116 0 -32 -7 -45 -41 -78 -36 -35
-40 -44 -35 -71 3 -17 18 -46 32 -64 23 -30 25 -41 19 -79 -3 -25 -13 -61 -22
-81 -9 -23 -12 -50 -9 -72 4 -20 7 -45 7 -56 3 -76 31 -91 160 -82 129 10 217
49 234 105 5 17 -1 30 -26 55 -51 50 -99 158 -99 222 0 30 -5 65 -11 78 -9 20
-6 30 15 62 32 47 36 113 8 138 -25 22 -44 21 -76 -4 -25 -19 -26 -20 -33 -2
-15 42 -44 62 -69 45z m35 -55 c6 -14 5 -42 -2 -70 -8 -35 -7 -51 1 -59 18
-18 39 -2 46 36 9 46 47 92 69 83 25 -10 21 -57 -9 -101 -25 -37 -26 -41 -14
-91 7 -29 10 -64 6 -78 -4 -18 4 -47 29 -98 19 -40 38 -88 41 -106 5 -29 9
-32 30 -27 21 5 24 3 24 -20 0 -20 -6 -27 -27 -32 -16 -4 -35 -13 -44 -21 -28
-24 -192 -43 -233 -27 -9 3 -16 17 -16 31 0 22 3 24 26 19 28 -7 54 8 54 31 0
9 -6 12 -19 8 -13 -4 -20 0 -24 17 -6 21 -7 21 -27 3 -11 -10 -20 -14 -21 -9
-3 26 4 69 17 99 23 55 18 124 -10 154 -33 36 -40 65 -20 81 13 11 17 11 24 1
4 -8 13 -10 19 -6 9 5 9 10 1 20 -7 9 -6 16 5 25 9 7 15 29 15 52 0 44 24 108
40 108 6 0 14 -10 19 -23z"/>
<path d="M5467 3963 c-13 -12 -7 -33 8 -33 8 0 15 9 15 20 0 20 -11 26 -23 13z"/>
<path d="M6809 4014 c-9 -10 -14 -39 -14 -74 l1 -57 -28 43 c-30 49 -54 64
-97 64 -34 0 -61 -30 -61 -68 0 -30 22 -71 54 -101 35 -33 33 -46 -14 -80 -67
-48 -100 -106 -100 -172 0 -19 -5 -29 -15 -29 -20 0 -35 -40 -24 -62 13 -24
84 -41 138 -33 84 11 193 35 227 50 37 15 45 43 19 65 -8 7 -15 25 -15 40 0
21 6 29 23 34 13 3 36 15 50 27 23 17 27 28 27 69 0 40 -5 55 -29 83 -26 29
-30 41 -29 93 1 83 -17 118 -63 122 -24 2 -40 -2 -50 -14z m72 -36 c7 -14 10
-46 6 -88 -5 -66 -5 -66 29 -94 61 -48 42 -114 -40 -137 -36 -10 -36 -10 -30
-52 4 -23 10 -46 15 -51 25 -28 0 -39 -146 -66 -74 -14 -167 -10 -173 8 -2 7
6 12 21 12 24 0 25 3 25 54 -1 68 21 108 81 151 25 17 49 43 53 57 8 24 5 32
-27 64 -41 41 -56 73 -48 103 6 22 32 27 62 12 10 -6 32 -42 50 -80 30 -66 51
-89 51 -57 0 7 6 19 14 25 10 9 13 27 9 71 -3 32 -3 66 0 74 9 23 34 20 48 -6z"/>
<path d="M6892 3768 c6 -18 28 -21 28 -4 0 9 -7 16 -16 16 -9 0 -14 -5 -12
-12z"/>
<path d="M6815 3750 c-7 -12 2 -30 16 -30 12 0 12 27 0 35 -5 3 -12 1 -16 -5z"/>
<path d="M3424 3996 c-16 -12 -19 -27 -20 -100 0 -62 -4 -90 -16 -103 -62 -71
-45 -156 37 -183 40 -13 52 -41 31 -72 -39 -56 -10 -74 151 -93 124 -14 196
-7 226 24 24 24 15 59 -19 71 -17 7 -24 17 -24 37 0 52 -39 113 -96 149 -30
19 -54 40 -54 45 0 6 13 26 30 45 56 65 49 155 -14 162 -40 5 -70 -13 -95 -59
-31 -54 -36 -54 -38 5 -4 74 -50 107 -99 72z m50 -22 c13 -5 16 -22 16 -80 0
-41 4 -74 9 -74 5 0 11 -9 14 -21 9 -33 27 -18 47 40 23 69 51 106 80 106 54
0 51 -57 -5 -123 -34 -39 -35 -43 -23 -69 7 -15 31 -36 52 -48 59 -31 90 -78
92 -139 2 -47 4 -51 28 -54 14 -2 26 -10 26 -17 0 -30 -186 -32 -288 -3 -32
10 -41 16 -35 28 3 8 8 36 11 61 l4 46 -41 7 c-85 13 -104 71 -45 136 33 36
36 43 25 66 -14 31 -14 99 -1 125 12 21 12 21 34 13z"/>
<path d="M3410 3734 c0 -17 22 -14 28 4 2 7 -3 12 -12 12 -9 0 -16 -7 -16 -16z"/>
<path d="M3492 3718 c6 -18 28 -21 28 -4 0 9 -7 16 -16 16 -9 0 -14 -5 -12
-12z"/>
<path d="M2020 3980 c-26 -26 -26 -81 1 -139 11 -25 18 -50 15 -57 -3 -7 -23
-18 -46 -24 -55 -15 -117 -72 -132 -121 -7 -26 -17 -39 -29 -39 -23 0 -48 -36
-42 -60 8 -32 88 -63 182 -71 132 -12 185 -10 206 5 17 12 18 17 7 40 -20 45
-7 73 40 79 81 11 114 77 77 154 -20 41 -20 45 -5 90 32 93 14 153 -46 153
-33 0 -54 -25 -69 -84 l-12 -50 -14 50 c-24 83 -88 119 -133 74z m67 -18 c18
-12 41 -72 49 -130 4 -34 11 -52 20 -52 8 0 14 6 14 13 0 7 9 18 20 25 14 8
20 24 21 50 2 58 13 87 36 90 14 2 22 -4 26 -19 8 -28 -9 -105 -28 -132 -13
-18 -12 -23 10 -49 25 -29 33 -81 17 -104 -13 -19 -50 -34 -86 -34 -32 0 -36
-3 -42 -35 -3 -19 -3 -46 0 -59 5 -21 2 -24 -27 -29 -48 -7 -206 10 -254 29
-43 16 -59 37 -25 33 35 -3 40 2 47 46 8 58 57 109 117 125 42 11 77 42 78 68
0 7 -9 25 -20 40 -49 66 -28 159 27 124z"/>
<path d="M2150 3716 c0 -9 7 -16 16 -16 9 0 14 5 12 12 -6 18 -28 21 -28 4z"/>
<path d="M2230 3715 c0 -8 7 -15 15 -15 8 0 15 7 15 15 0 8 -7 15 -15 15 -8 0
-15 -7 -15 -15z"/>
<path d="M347 3730 c-33 -26 -42 -81 -23 -144 11 -37 12 -54 4 -70 -19 -36
-11 -89 17 -113 14 -12 25 -29 25 -37 0 -31 41 -40 168 -38 83 2 136 7 165 18
39 15 68 21 109 23 53 3 65 78 18 113 -23 17 -30 30 -30 55 0 99 -106 189
-199 168 -23 -5 -29 -1 -39 20 -17 37 -66 35 -90 -5 l-18 -29 -26 29 c-31 35
-46 37 -81 10z m73 -111 c0 -55 1 -59 24 -59 21 0 24 5 30 58 6 55 27 102 45
102 5 0 14 -13 21 -30 12 -28 11 -45 -5 -97 -5 -17 -3 -23 7 -23 16 0 38 40
38 71 0 32 42 42 97 21 64 -24 87 -59 90 -135 1 -34 2 -66 3 -70 0 -4 12 -6
28 -5 23 3 27 -1 27 -22 0 -22 -4 -25 -35 -25 -19 -1 -51 -9 -70 -20 -49 -26
-310 -40 -310 -17 0 4 26 7 58 7 66 0 112 19 112 47 0 22 -8 23 -30 3 -19 -17
-129 -24 -167 -11 -29 9 -38 45 -23 91 9 26 9 44 1 67 -18 50 -14 125 7 137
29 18 52 -21 52 -90z"/>
<path d="M377 3485 c-8 -18 11 -31 25 -17 11 11 3 32 -12 32 -4 0 -10 -7 -13
-15z"/>
<path d="M496 3493 c-12 -12 -6 -33 9 -33 8 0 15 6 15 14 0 17 -14 28 -24 19z"/>
<path d="M4363 3674 c-25 -11 -10 -84 17 -84 20 0 51 41 48 62 -3 23 -36 34
-65 22z"/>
<path d="M4646 3655 c-20 -21 -20 -29 0 -50 15 -15 18 -15 36 1 22 21 20 57
-3 62 -9 2 -24 -4 -33 -13z"/>
<path d="M5944 3656 c-8 -22 14 -56 36 -56 21 0 37 40 25 59 -9 16 -55 13 -61
-3z"/>
<path d="M7156 3624 c-18 -17 -19 -24 -10 -48 9 -24 39 -19 52 9 9 19 8 27 -4
40 -19 19 -19 19 -38 -1z"/>
<path d="M6184 3595 c-9 -21 3 -45 21 -45 10 0 15 10 15 30 0 32 -26 43 -36
15z"/>
<path d="M113 3584 c-20 -8 -16 -73 4 -81 21 -8 55 33 51 61 -3 21 -30 30 -55
20z"/>
<path d="M2602 3558 c-7 -7 -12 -22 -12 -35 0 -18 6 -23 24 -23 26 0 40 23 31
51 -7 22 -25 25 -43 7z"/>
<path d="M2872 3538 c-20 -20 -15 -56 10 -64 25 -8 50 20 46 51 -3 23 -37 32
-56 13z"/>
<path d="M1100 3480 c-16 -29 -3 -62 22 -58 30 4 46 33 32 56 -16 25 -41 26
-54 2z"/>
</g>
</svg>
